<?xml version="1.0" encoding="utf-8"?>
<!-- Generator: Adobe Illustrator 23.0.2, SVG Export Plug-In . SVG Version: 6.00 Build 0)  -->
<svg version="1.1" id="Calque_1" xmlns="http://www.w3.org/2000/svg" xmlns:xlink="http://www.w3.org/1999/xlink" x="0px" y="0px"
	 viewBox="0 0 280 250" style="enable-background:new 0 0 280 250;" xml:space="preserve">
<style type="text/css">
	.st0{fill:none;stroke:url(#SVGID_1_);stroke-width:2;stroke-miterlimit:10;}
	.st1{fill:none;stroke:url(#SVGID_2_);stroke-width:2;stroke-miterlimit:10;}
	.st2{fill-rule:evenodd;clip-rule:evenodd;fill:#F1EBF7;}
	.st3{fill-rule:evenodd;clip-rule:evenodd;fill:#FFFFFF;}
	.st4{fill:#FFFFFF;}
	.st5{fill:#FEE1E0;}
	.st6{fill:#FDA6A3;}
	
		.st7{fill:none;stroke:url(#SVGID_3_);stroke-width:2;stroke-linecap:round;stroke-linejoin:round;stroke-miterlimit:10;stroke-dasharray:3,6;}
	
		.st8{fill:none;stroke:url(#SVGID_4_);stroke-width:2;stroke-linecap:round;stroke-linejoin:round;stroke-miterlimit:10;stroke-dasharray:3,6;}
	
		.st9{fill:none;stroke:url(#SVGID_5_);stroke-width:2;stroke-linecap:round;stroke-linejoin:round;stroke-miterlimit:10;stroke-dasharray:3,6;}
	
		.st10{fill:none;stroke:url(#SVGID_6_);stroke-width:2;stroke-linecap:round;stroke-linejoin:round;stroke-miterlimit:10;stroke-dasharray:3,6;}
	.st11{opacity:0.4;}
	.st12{fill:#FEC0BE;}
	.st13{fill:url(#SVGID_7_);}
	.st14{fill:#FD9592;}
	.st15{fill:none;stroke:url(#SVGID_8_);stroke-width:2;stroke-miterlimit:10;}
	.st16{fill:url(#SVGID_9_);}
	.st17{fill:none;stroke:url(#SVGID_10_);stroke-width:2;stroke-miterlimit:10;}
	.st18{fill:#FC6A65;}
	.st19{fill:none;stroke:#FC6A65;stroke-width:2;stroke-miterlimit:10;}
	
		.st20{fill:none;stroke:url(#SVGID_11_);stroke-width:2;stroke-linecap:round;stroke-linejoin:round;stroke-miterlimit:10;stroke-dasharray:3,6;}
	.st21{fill:none;stroke:url(#SVGID_12_);stroke-width:2;stroke-miterlimit:10;}
	
		.st22{fill:none;stroke:url(#SVGID_13_);stroke-width:2;stroke-linecap:round;stroke-linejoin:round;stroke-miterlimit:10;stroke-dasharray:3,6;}
	.st23{fill:none;stroke:url(#SVGID_14_);stroke-width:2;stroke-miterlimit:10;}
	
		.st24{fill:none;stroke:url(#SVGID_15_);stroke-width:2;stroke-linecap:round;stroke-linejoin:round;stroke-miterlimit:10;stroke-dasharray:3,6;}
	.st25{fill:none;stroke:url(#SVGID_16_);stroke-width:2;stroke-miterlimit:10;}
	
		.st26{fill:none;stroke:url(#SVGID_17_);stroke-width:2;stroke-linecap:round;stroke-linejoin:round;stroke-miterlimit:10;stroke-dasharray:3,6;}
	.st27{fill:none;stroke:url(#SVGID_18_);stroke-width:2;stroke-miterlimit:10;}
	.st28{fill:#4F0599;}
	.st29{fill:none;stroke:#FFFFFF;stroke-width:2;stroke-miterlimit:10;}
	.st30{fill:#FEC8C6;}
</style>
<g>
	<linearGradient id="SVGID_1_" gradientUnits="userSpaceOnUse" x1="35.7989" y1="70.7905" x2="203.4345" y2="70.7905">
		<stop  offset="0" style="stop-color:#FC6A65;stop-opacity:0.5"/>
		<stop  offset="1" style="stop-color:#F8F5FB"/>
	</linearGradient>
	<path class="st0" d="M36.8,123.6C41.6,65,90.7,18.9,150.5,18.9c18.9,0,36.8,4.6,52.5,12.8"/>
	<linearGradient id="SVGID_2_" gradientUnits="userSpaceOnUse" x1="85.4786" y1="163.0302" x2="265.5118" y2="163.0302">
		<stop  offset="0" style="stop-color:#FC6A65;stop-opacity:0.5"/>
		<stop  offset="1" style="stop-color:#F8F5FB"/>
	</linearGradient>
	<path class="st1" d="M250.7,78.5c8,14.7,12.9,31.3,13.7,49c0.1,1.8,0.1,3.6,0.1,5.5c0,63-51.1,114.1-114.1,114.1
		c-23.9,0-46.1-7.4-64.4-19.9"/>
	<g>
		<circle class="st2" cx="150.5" cy="133" r="104.3"/>
		<circle class="st3" cx="150.5" cy="133" r="79.4"/>
	</g>
	<path class="st4" d="M232.9,75.9H92.1c-2,0-3.8,0.8-5.1,2.1c-1.3,1.3-2.1,3.1-2.1,5.1v14.1v61.9v12.7c0,3.2,2.1,5.9,4.9,6.9
		c0.1,0,0.3,0.1,0.4,0.1c0.6,0.2,1.3,0.3,1.9,0.3h140.8c2.3,0,4.3-1,5.6-2.6c1-1.3,1.7-2.9,1.7-4.6v-12.7V97.3V83.2
		C240.1,79.1,236.9,75.9,232.9,75.9z"/>
	<g>
		<rect x="9" y="136.8" class="st5" width="2.1" height="2.3"/>
		<rect x="13" y="136.8" class="st5" width="2.1" height="2.3"/>
		<rect x="17" y="136.8" class="st5" width="2.1" height="2.3"/>
		<rect x="4" y="144.1" class="st5" width="16.9" height="2.3"/>
		<rect x="9" y="151.4" class="st6" width="11.9" height="2.3"/>
		<rect x="23.8" y="151.4" class="st5" width="20.9" height="2.3"/>
		<rect x="23.8" y="144.1" class="st5" width="6.6" height="2.3"/>
		<rect x="35.9" y="144.1" class="st5" width="6.6" height="2.3"/>
		<rect x="23.8" y="136.8" class="st6" width="11.9" height="2.3"/>
	</g>
	<g>
		<rect x="262.8" y="38.8" class="st5" width="2.1" height="2.3"/>
		<rect x="258.9" y="38.8" class="st5" width="2.1" height="2.3"/>
		<rect x="254.8" y="38.8" class="st5" width="2.1" height="2.3"/>
		<rect x="253.1" y="46.1" class="st5" width="16.9" height="2.3"/>
		<rect x="253.1" y="53.4" class="st6" width="11.9" height="2.3"/>
		<rect x="229.4" y="53.4" class="st5" width="20.9" height="2.3"/>
		<rect x="243.6" y="46.1" class="st5" width="6.6" height="2.3"/>
		<rect x="231.5" y="46.1" class="st5" width="6.6" height="2.3"/>
		<rect x="238.4" y="38.8" class="st6" width="11.9" height="2.3"/>
	</g>
	<linearGradient id="SVGID_3_" gradientUnits="userSpaceOnUse" x1="180.4292" y1="49.8748" x2="228.8842" y2="49.8748">
		<stop  offset="0" style="stop-color:#F8F5FB"/>
		<stop  offset="1" style="stop-color:#4F0599;stop-opacity:0.5"/>
	</linearGradient>
	<line class="st7" x1="227.9" y1="13.2" x2="181.4" y2="86.6"/>
	<linearGradient id="SVGID_4_" gradientUnits="userSpaceOnUse" x1="62.5583" y1="58.4144" x2="115.5131" y2="58.4144">
		<stop  offset="0" style="stop-color:#4F0599;stop-opacity:0.5"/>
		<stop  offset="1" style="stop-color:#F8F5FB"/>
	</linearGradient>
	<line class="st8" x1="63.6" y1="30.2" x2="114.5" y2="86.6"/>
	<linearGradient id="SVGID_5_" gradientUnits="userSpaceOnUse" x1="37.8954" y1="164.0583" x2="77.3862" y2="164.0583">
		<stop  offset="0" style="stop-color:#4F0599;stop-opacity:0.5"/>
		<stop  offset="1" style="stop-color:#F8F5FB"/>
	</linearGradient>
	<line class="st9" x1="38.9" y1="169.7" x2="76.4" y2="158.4"/>
	<linearGradient id="SVGID_6_" gradientUnits="userSpaceOnUse" x1="199.7449" y1="201.0732" x2="230.9318" y2="201.0732">
		<stop  offset="0" style="stop-color:#F8F5FB"/>
		<stop  offset="1" style="stop-color:#4F0599;stop-opacity:0.5"/>
	</linearGradient>
	<line class="st10" x1="229.9" y1="215.3" x2="200.7" y2="186.9"/>
	<g>
		<g class="st11">
			<g>
				<path class="st12" d="M92.2,75.9H233c4,0,7.3,3.3,7.3,7.3v76c0,4-3.2,7.3-7.3,7.3H92.2c-4,0-7.3-3.3-7.3-7.3v-76
					C84.9,79.1,88.2,75.9,92.2,75.9z"/>
				<linearGradient id="SVGID_7_" gradientUnits="userSpaceOnUse" x1="162.5788" y1="63.6526" x2="162.5788" y2="158.8488">
					<stop  offset="0" style="stop-color:#FED8D7"/>
					<stop  offset="0.9987" style="stop-color:#FFFFFF"/>
				</linearGradient>
				<path class="st13" d="M84.9,97.3v74.6c0,4,3.2,7.3,7.3,7.3H233c4,0,7.3-3.3,7.3-7.3V97.3H84.9z"/>
			</g>
			<path class="st14" d="M103.6,85.9c0,2.2-1.7,3.9-3.9,3.9c-2.2,0-3.9-1.7-3.9-3.9c0-2.2,1.7-3.9,3.9-3.9
				C101.9,82,103.6,83.7,103.6,85.9z"/>
			<path class="st14" d="M118.9,85.9c0,2.2-1.7,3.9-3.9,3.9c-2.2,0-3.9-1.7-3.9-3.9c0-2.2,1.7-3.9,3.9-3.9
				C117.1,82,118.9,83.7,118.9,85.9z"/>
			<path class="st14" d="M134.1,85.9c0,2.2-1.7,3.9-3.9,3.9c-2.2,0-3.9-1.7-3.9-3.9c0-2.2,1.7-3.9,3.9-3.9
				C132.4,82,134.1,83.7,134.1,85.9z"/>
			<linearGradient id="SVGID_8_" gradientUnits="userSpaceOnUse" x1="162.5789" y1="74.8929" x2="162.5789" y2="180.1281">
				<stop  offset="0" style="stop-color:#FC6A65;stop-opacity:0.5"/>
				<stop  offset="1" style="stop-color:#F8F5FB"/>
			</linearGradient>
			<path class="st15" d="M233,75.9H92.2c-4,0-7.3,3.3-7.3,7.3v14.1v61.9v12.7c0,4,3.2,7.3,7.3,7.3H233c4,0,7.3-3.3,7.3-7.3v-12.7
				V97.3V83.2C240.2,79.1,237,75.9,233,75.9z"/>
		</g>
		<g>
			<g>
				<g>
					<path class="st12" d="M80.1,86.6h140.8c4,0,7.3,3.3,7.3,7.3v76c0,4-3.2,7.3-7.3,7.3H80.1c-4,0-7.3-3.3-7.3-7.3v-76
						C72.8,89.8,76.1,86.6,80.1,86.6z"/>
					<linearGradient id="SVGID_9_" gradientUnits="userSpaceOnUse" x1="150.4613" y1="89.2848" x2="150.4613" y2="184.481">
						<stop  offset="0" style="stop-color:#FED8D7"/>
						<stop  offset="0.9987" style="stop-color:#FFFFFF"/>
					</linearGradient>
					<path class="st16" d="M72.8,108v74.6c0,4,3.2,7.3,7.3,7.3h140.8c4,0,7.3-3.3,7.3-7.3V108H72.8z"/>
				</g>
				<path class="st14" d="M91.5,96.6c0,2.2-1.7,3.9-3.9,3.9c-2.2,0-3.9-1.7-3.9-3.9c0-2.2,1.7-3.9,3.9-3.9
					C89.7,92.7,91.5,94.4,91.5,96.6z"/>
				<path class="st14" d="M106.7,96.6c0,2.2-1.7,3.9-3.9,3.9c-2.2,0-3.9-1.7-3.9-3.9c0-2.2,1.7-3.9,3.9-3.9
					C105,92.7,106.7,94.4,106.7,96.6z"/>
				<path class="st14" d="M122,96.6c0,2.2-1.7,3.9-3.9,3.9c-2.2,0-3.9-1.7-3.9-3.9c0-2.2,1.7-3.9,3.9-3.9
					C120.2,92.7,122,94.4,122,96.6z"/>
				<linearGradient id="SVGID_10_" gradientUnits="userSpaceOnUse" x1="150.4614" y1="85.5885" x2="150.4614" y2="190.8236">
					<stop  offset="0" style="stop-color:#FC6A65;stop-opacity:0.5"/>
					<stop  offset="1" style="stop-color:#F8F5FB"/>
				</linearGradient>
				<path class="st17" d="M220.9,86.6H80.1c-4,0-7.3,3.3-7.3,7.3V108v61.9v12.7c0,4,3.2,7.3,7.3,7.3h140.8c4,0,7.3-3.3,7.3-7.3
					v-12.7V108V93.9C228.1,89.8,224.9,86.6,220.9,86.6z"/>
			</g>
			<g>
				<path class="st18" d="M206.9,130.8h-50.3c-1.6,0-2.9-1.3-2.9-2.9v-9c0-1.6,1.3-2.9,2.9-2.9h50.3c1.6,0,2.9,1.3,2.9,2.9v9
					C209.8,129.5,208.5,130.8,206.9,130.8z"/>
				<g>
					<path class="st19" d="M130,152.6c1,2.4,1.5,4.9,1.5,7.6c0,11.1-9,20.2-20.2,20.2s-20.2-9-20.2-20.2s9-20.2,20.2-20.2
						c0.3,0,0.7,0,1,0l0.1,19.8L130,152.6z"/>
					<path class="st19" d="M119.2,135.7c6.3,0.3,11.7,4.3,14,9.9l-14,5.4V135.7z"/>
				</g>
				<g>
					<polyline class="st19" points="156.8,174.9 168.5,158.9 175.1,168.6 185.5,154.9 192.7,164.6 203.6,148.1 					"/>
					<circle class="st18" cx="168.5" cy="158.9" r="2.9"/>
					<circle class="st18" cx="175.1" cy="168.6" r="2.9"/>
					<circle class="st18" cx="185.5" cy="154.9" r="2.9"/>
					<circle class="st18" cx="192.7" cy="164.6" r="2.9"/>
					<circle class="st18" cx="203.6" cy="148.1" r="2.9"/>
					<path class="st19" d="M159.7,179h43.8c3.5,0,6.2-2.8,6.2-6.2V145c0-3.5-2.8-6.2-6.2-6.2h-43.8c-3.5,0-6.2,2.8-6.2,6.2v27.7
						C153.5,176.2,156.3,179,159.7,179z"/>
				</g>
			</g>
		</g>
	</g>
	<g>
		<linearGradient id="SVGID_11_" gradientUnits="userSpaceOnUse" x1="141.5793" y1="74.4108" x2="146.2097" y2="74.4108">
			<stop  offset="0" style="stop-color:#4F0599;stop-opacity:0.5"/>
			<stop  offset="1" style="stop-color:#F8F5FB"/>
		</linearGradient>
		<line class="st20" x1="142.6" y1="62.2" x2="145.2" y2="86.6"/>
		<linearGradient id="SVGID_12_" gradientUnits="userSpaceOnUse" x1="133.2693" y1="54.7331" x2="150.2693" y2="54.7331">
			<stop  offset="0" style="stop-color:#9569C2"/>
			<stop  offset="1" style="stop-color:#F8F5FB"/>
		</linearGradient>
		<circle class="st21" cx="141.8" cy="54.7" r="7.5"/>
	</g>
	<g>
		<linearGradient id="SVGID_13_" gradientUnits="userSpaceOnUse" x1="227.1142" y1="114.5667" x2="261.9925" y2="114.5667">
			<stop  offset="0" style="stop-color:#F8F5FB"/>
			<stop  offset="1" style="stop-color:#4F0599;stop-opacity:0.5"/>
		</linearGradient>
		<line class="st22" x1="261" y1="108" x2="228.1" y2="121.2"/>
		<linearGradient id="SVGID_14_" gradientUnits="userSpaceOnUse" x1="260.0136" y1="104.9344" x2="277.0136" y2="104.9344">
			<stop  offset="0" style="stop-color:#9569C2"/>
			<stop  offset="1" style="stop-color:#F8F5FB"/>
		</linearGradient>
		<circle class="st23" cx="268.5" cy="104.9" r="7.5"/>
	</g>
	<g>
		<linearGradient id="SVGID_15_" gradientUnits="userSpaceOnUse" x1="158.8969" y1="196.1872" x2="163.5789" y2="196.1872">
			<stop  offset="0" style="stop-color:#F8F5FB"/>
			<stop  offset="1" style="stop-color:#4F0599;stop-opacity:0.5"/>
		</linearGradient>
		<line class="st24" x1="162.6" y1="203.8" x2="159.9" y2="188.6"/>
		<linearGradient id="SVGID_16_" gradientUnits="userSpaceOnUse" x1="155.5109" y1="211.9484" x2="172.5109" y2="211.9484">
			<stop  offset="0" style="stop-color:#9569C2"/>
			<stop  offset="1" style="stop-color:#F8F5FB"/>
		</linearGradient>
		<circle class="st25" cx="164" cy="211.9" r="7.5"/>
	</g>
	<g>
		<linearGradient id="SVGID_17_" gradientUnits="userSpaceOnUse" x1="69.6246" y1="199.9328" x2="95.4778" y2="199.9328">
			<stop  offset="0" style="stop-color:#4F0599;stop-opacity:0.5"/>
			<stop  offset="1" style="stop-color:#F8F5FB"/>
		</linearGradient>
		<line class="st26" x1="70.6" y1="212.5" x2="94.5" y2="187.4"/>
		<linearGradient id="SVGID_18_" gradientUnits="userSpaceOnUse" x1="59.5567" y1="216.908" x2="73.5567" y2="216.908">
			<stop  offset="0" style="stop-color:#9569C2"/>
			<stop  offset="1" style="stop-color:#F8F5FB"/>
		</linearGradient>
		<circle class="st27" cx="66.6" cy="216.9" r="6"/>
	</g>
	<circle class="st28" cx="227.9" cy="13.2" r="10.2"/>
	<g>
		<circle class="st28" cx="238.9" cy="225.7" r="13.8"/>
		<g>
			<line class="st29" x1="234.3" y1="232.2" x2="234.3" y2="223.8"/>
			<line class="st29" x1="243.5" y1="232.2" x2="243.5" y2="220.6"/>
			<line class="st29" x1="238.9" y1="232.2" x2="238.9" y2="217.2"/>
		</g>
	</g>
	<g>
		<circle class="st28" cx="26.9" cy="173.4" r="13.8"/>
		<g>
			<line class="st29" x1="22.3" y1="179.7" x2="22.3" y2="171.3"/>
			<line class="st29" x1="31.4" y1="179.7" x2="31.4" y2="164.3"/>
			<line class="st29" x1="26.9" y1="179.7" x2="26.9" y2="174.2"/>
		</g>
	</g>
	<g>
		<circle class="st28" cx="54.3" cy="20" r="13.8"/>
		<g>
			<line class="st29" x1="58.9" y1="26.6" x2="58.9" y2="18.1"/>
			<line class="st29" x1="49.8" y1="26.6" x2="49.8" y2="18.1"/>
			<line class="st29" x1="54.3" y1="26.6" x2="54.3" y2="11.6"/>
		</g>
	</g>
	<g>
		<line class="st29" x1="223.3" y1="17.9" x2="223.3" y2="9.6"/>
		<line class="st29" x1="227.9" y1="17.9" x2="227.9" y2="12.1"/>
		<line class="st29" x1="232.5" y1="17.9" x2="232.5" y2="7.9"/>
	</g>
	<g>
		<rect x="124.1" y="115.2" class="st18" width="14.2" height="3"/>
		<rect x="123.2" y="121.8" class="st18" width="5.5" height="3"/>
		<rect x="127.8" y="128.4" class="st18" width="5.4" height="3"/>
		<rect x="114.1" y="128.4" class="st18" width="8.1" height="3"/>
		<rect x="111.8" y="121.8" class="st30" width="8.1" height="3"/>
		<rect x="90.1" y="128.4" class="st18" width="8.1" height="3"/>
		<rect x="90.1" y="121.8" class="st18" width="8.1" height="3"/>
		<rect x="90.1" y="115.2" class="st18" width="8.1" height="3"/>
		<rect x="100" y="115.2" class="st18" width="14.2" height="3"/>
		<rect x="100" y="121.8" class="st18" width="8.1" height="3"/>
		<rect x="100" y="128.4" class="st30" width="8.1" height="3"/>
	</g>
</g>
</svg>
