<?xml version="1.0" encoding="utf-8"?>
<!-- Generator: Adobe Illustrator 23.0.2, SVG Export Plug-In . SVG Version: 6.00 Build 0)  -->
<svg version="1.1" id="Calque_1" xmlns="http://www.w3.org/2000/svg" xmlns:xlink="http://www.w3.org/1999/xlink" x="0px" y="0px"
	 viewBox="0 0 250 250" style="enable-background:new 0 0 250 250;" xml:space="preserve">
<style type="text/css">
	.st0{fill:#FC6A65;}
	.st1{fill-rule:evenodd;clip-rule:evenodd;fill:none;stroke:url(#SVGID_1_);stroke-width:2;stroke-miterlimit:10;}
	.st2{fill-rule:evenodd;clip-rule:evenodd;fill:none;stroke:url(#SVGID_2_);stroke-width:2;stroke-miterlimit:10;}
	.st3{fill:none;stroke:url(#SVGID_3_);stroke-width:3;stroke-miterlimit:10;}
	.st4{fill:none;stroke:url(#SVGID_4_);stroke-width:3;stroke-miterlimit:10;}
	.st5{fill:none;stroke:url(#SVGID_5_);stroke-width:3;stroke-miterlimit:10;}
	.st6{fill:none;stroke:url(#SVGID_6_);stroke-width:3;stroke-miterlimit:10;}
	.st7{fill:none;stroke:url(#SVGID_7_);stroke-width:3;stroke-miterlimit:10;}
	.st8{fill:none;stroke:url(#SVGID_8_);stroke-width:3;stroke-miterlimit:10;}
	.st9{fill:url(#SVGID_9_);}
	.st10{fill:#4F0599;}
	
		.st11{fill:none;stroke:#4F0599;stroke-width:2;stroke-linecap:round;stroke-linejoin:round;stroke-miterlimit:10;stroke-dasharray:3,8;}
	
		.st12{fill:url(#SVGID_10_);stroke:url(#SVGID_11_);stroke-width:2;stroke-linecap:round;stroke-linejoin:round;stroke-miterlimit:10;}
	
		.st13{fill:url(#SVGID_12_);stroke:url(#SVGID_13_);stroke-width:2;stroke-linecap:round;stroke-linejoin:round;stroke-miterlimit:10;}
	
		.st14{fill:url(#SVGID_14_);stroke:url(#SVGID_15_);stroke-width:2;stroke-linecap:round;stroke-linejoin:round;stroke-miterlimit:10;}
	.st15{opacity:0.5;fill:#FC6A65;}
	.st16{opacity:0.5;fill:none;stroke:#FC6A65;stroke-width:2;stroke-linecap:round;stroke-linejoin:round;stroke-miterlimit:10;}
	
		.st17{fill:url(#SVGID_16_);stroke:url(#SVGID_17_);stroke-width:2;stroke-linecap:round;stroke-linejoin:round;stroke-miterlimit:10;}
	
		.st18{fill:url(#SVGID_18_);stroke:url(#SVGID_19_);stroke-width:2;stroke-linecap:round;stroke-linejoin:round;stroke-miterlimit:10;}
	
		.st19{fill:url(#SVGID_20_);stroke:url(#SVGID_21_);stroke-width:2;stroke-linecap:round;stroke-linejoin:round;stroke-miterlimit:10;}
	.st20{opacity:0.5;fill:#4F0599;}
	.st21{opacity:0.5;fill:none;stroke:#4F0599;stroke-width:2;stroke-linecap:round;stroke-linejoin:round;stroke-miterlimit:10;}
	
		.st22{fill:url(#SVGID_22_);stroke:url(#SVGID_23_);stroke-width:2;stroke-linecap:round;stroke-linejoin:round;stroke-miterlimit:10;}
	
		.st23{fill:url(#SVGID_24_);stroke:url(#SVGID_25_);stroke-width:2;stroke-linecap:round;stroke-linejoin:round;stroke-miterlimit:10;}
	
		.st24{fill:url(#SVGID_26_);stroke:url(#SVGID_27_);stroke-width:2;stroke-linecap:round;stroke-linejoin:round;stroke-miterlimit:10;}
	.st25{fill:url(#SVGID_28_);}
	.st26{clip-path:url(#SVGID_30_);}
	.st27{clip-path:url(#SVGID_32_);fill:none;stroke:#4F0599;stroke-width:2;stroke-miterlimit:10;}
</style>
<g>
	<circle class="st0" cx="50.7" cy="79.7" r="6.5"/>
	<linearGradient id="SVGID_1_" gradientUnits="userSpaceOnUse" x1="25.1122" y1="167.0472" x2="137.5175" y2="167.0472">
		<stop  offset="0" style="stop-color:#4F0599;stop-opacity:0.5"/>
		<stop  offset="1" style="stop-color:#F8F5FB"/>
	</linearGradient>
	<path class="st1" d="M137.4,238.4c-2.9,0.3-5.9,0.4-8.9,0.4c-56.6,0-102.5-45.9-102.5-102.5c0-14.8,3.2-28.9,8.8-41.7"/>
	<linearGradient id="SVGID_2_" gradientUnits="userSpaceOnUse" x1="147.1728" y1="98.3464" x2="232.0162" y2="98.3464">
		<stop  offset="0" style="stop-color:#4F0599;stop-opacity:0.5"/>
		<stop  offset="1" style="stop-color:#F8F5FB"/>
	</linearGradient>
	<path class="st2" d="M147.4,35.6C195,44.5,231,86.2,231,136.4c0,8.8-1.1,17.3-3.2,25.4"/>
	<linearGradient id="SVGID_3_" gradientUnits="userSpaceOnUse" x1="31.437" y1="158.964" x2="148.9529" y2="158.964">
		<stop  offset="0" style="stop-color:#FC6A65;stop-opacity:0.5"/>
		<stop  offset="1" style="stop-color:#F8F5FB"/>
	</linearGradient>
	<path class="st3" d="M148.6,229.9c-6.5,1.4-13.2,2.1-20.1,2.1c-52.8,0-95.6-42.8-95.6-95.6c0-18.8,5.4-36.3,14.8-51.1"/>
	<linearGradient id="SVGID_4_" gradientUnits="userSpaceOnUse" x1="153.2498" y1="227.8088" x2="159.832" y2="227.8088">
		<stop  offset="0" style="stop-color:#FC6A65;stop-opacity:0.5"/>
		<stop  offset="1" style="stop-color:#F8F5FB"/>
	</linearGradient>
	<path class="st4" d="M159.3,226.9c-1.9,0.6-3.8,1.2-5.7,1.7"/>
	<linearGradient id="SVGID_5_" gradientUnits="userSpaceOnUse" x1="167.3849" y1="219.2167" x2="184.1425" y2="219.2167">
		<stop  offset="0" style="stop-color:#FC6A65;stop-opacity:0.5"/>
		<stop  offset="1" style="stop-color:#F8F5FB"/>
	</linearGradient>
	<path class="st5" d="M183.3,214.8c-4.8,3.3-9.9,6.3-15.3,8.7"/>
	<linearGradient id="SVGID_6_" gradientUnits="userSpaceOnUse" x1="98.4348" y1="121.9049" x2="225.6914" y2="121.9049">
		<stop  offset="0" style="stop-color:#FC6A65;stop-opacity:0.5"/>
		<stop  offset="1" style="stop-color:#F8F5FB"/>
	</linearGradient>
	<path class="st6" d="M98.9,45.4c9.3-3,19.3-4.7,29.7-4.7c52.8,0,95.6,42.8,95.6,95.6c0,26.2-10.5,49.9-27.6,67.2"/>
	<linearGradient id="SVGID_7_" gradientUnits="userSpaceOnUse" x1="77.2041" y1="51.7803" x2="91.3803" y2="51.7803">
		<stop  offset="0" style="stop-color:#FC6A65;stop-opacity:0.5"/>
		<stop  offset="1" style="stop-color:#F8F5FB"/>
	</linearGradient>
	<path class="st7" d="M78,55.2c4.1-2.5,8.3-4.8,12.8-6.7"/>
	<linearGradient id="SVGID_8_" gradientUnits="userSpaceOnUse" x1="66.263" y1="61.0769" x2="72.9287" y2="61.0769">
		<stop  offset="0" style="stop-color:#FC6A65;stop-opacity:0.5"/>
		<stop  offset="1" style="stop-color:#F8F5FB"/>
	</linearGradient>
	<path class="st8" d="M67.2,63c1.6-1.3,3.2-2.6,4.8-3.8"/>
	<g>
		<linearGradient id="SVGID_9_" gradientUnits="userSpaceOnUse" x1="27.3492" y1="192.9797" x2="93.9916" y2="249.3694">
			<stop  offset="0" style="stop-color:#F8F5FB"/>
			<stop  offset="1" style="stop-color:#4F0599;stop-opacity:0.5"/>
		</linearGradient>
		<circle class="st9" cx="39.8" cy="203.5" r="25.2"/>
		<g id="Combined-Shape_1_">
			<path class="st10" d="M32.4,214.8l3.7,3.7l-2.3,2.3l-7.6-7.6l7.6-7.6l2.3,2.3l-3.7,3.7h13.8c2.7,0,4.8-2.2,4.8-4.8v-4.8h3.2v4.8
				c0,4.5-3.6,8.1-8.1,8.1H32.4z M47.2,192.2l-3.7-3.7l2.3-2.3l7.6,7.6l-7.6,7.6l-2.3-2.3l3.7-3.7H33.4c-2.7,0-4.8,2.2-4.8,4.8v4.8
				h-3.2v-4.8c0-4.5,3.6-8.1,8.1-8.1L47.2,192.2L47.2,192.2z"/>
		</g>
	</g>
	<circle class="st10" cx="168" cy="35.6" r="10"/>
	<circle class="st10" cx="72" cy="232" r="10"/>
	<circle class="st0" cx="196.6" cy="203.5" r="6.5"/>
	<circle class="st10" cx="188" cy="48.5" r="6.5"/>
	<g>
		<polyline class="st11" points="101.6,79 101.6,12 72,12 		"/>
		<circle class="st10" cx="73.6" cy="12" r="4"/>
	</g>
	<g>
		<polyline class="st11" points="68.7,139.9 52.7,139.9 52.7,40 		"/>
		<circle class="st10" cx="52.7" cy="38.9" r="4"/>
	</g>
	<g>
		<line class="st11" x1="68.7" y1="168.7" x2="12.2" y2="168.7"/>
		<circle class="st10" cx="8.2" cy="168.7" r="4"/>
	</g>
	<g>
		<polyline class="st11" points="188,166.5 227.1,166.5 227.1,212.7 239.6,212.7 		"/>
		<circle class="st10" cx="236.5" cy="212.7" r="4"/>
	</g>
	<g>
		<polyline class="st11" points="188.4,135 210.9,135 210.9,27.8 245.1,27.8 		"/>
		<circle class="st10" cx="241.8" cy="27.8" r="4"/>
	</g>
	<g>
		<g>
			<linearGradient id="SVGID_10_" gradientUnits="userSpaceOnUse" x1="149.2235" y1="131.8769" x2="107.4995" y2="184.5286">
				<stop  offset="0" style="stop-color:#FEC0BE;stop-opacity:0.5"/>
				<stop  offset="0.9987" style="stop-color:#FFFFFF"/>
			</linearGradient>
			<linearGradient id="SVGID_11_" gradientUnits="userSpaceOnUse" x1="67.7448" y1="158.0372" x2="188.397" y2="158.0372">
				<stop  offset="0" style="stop-color:#F8F5FB"/>
				<stop  offset="1" style="stop-color:#FC6A65;stop-opacity:0.5"/>
			</linearGradient>
			<polygon class="st12" points="124,191.1 68.7,160.9 132.2,125 187.4,156.3 			"/>
			<linearGradient id="SVGID_12_" gradientUnits="userSpaceOnUse" x1="151.3087" y1="176.1226" x2="159.8602" y2="190.8934">
				<stop  offset="0" style="stop-color:#FC6A65;stop-opacity:0.5"/>
				<stop  offset="1" style="stop-color:#F8F5FB"/>
			</linearGradient>
			<linearGradient id="SVGID_13_" gradientUnits="userSpaceOnUse" x1="150.671" y1="174.8273" x2="160.5381" y2="192.2523">
				<stop  offset="0" style="stop-color:#FC6A65;stop-opacity:0.5"/>
				<stop  offset="1" style="stop-color:#F8F5FB"/>
			</linearGradient>
			<polygon class="st13" points="124,211.1 187.4,175.9 187.4,156.3 124,191.1 			"/>
			<linearGradient id="SVGID_14_" gradientUnits="userSpaceOnUse" x1="100.675" y1="177.4412" x2="90.0215" y2="198.5141">
				<stop  offset="0" style="stop-color:#FEC0BE"/>
				<stop  offset="0.9987" style="stop-color:#FFFFFF"/>
			</linearGradient>
			<linearGradient id="SVGID_15_" gradientUnits="userSpaceOnUse" x1="91.7495" y1="194.2229" x2="101.2423" y2="177.2454">
				<stop  offset="0" style="stop-color:#F8F5FB"/>
				<stop  offset="1" style="stop-color:#FC6A65;stop-opacity:0.5"/>
			</linearGradient>
			<polygon class="st14" points="68.7,160.9 68.7,180.1 124,211.1 124,191.1 			"/>
			<ellipse class="st15" cx="115.3" cy="196.6" rx="2.1" ry="3.1"/>
			<g>
				<line class="st16" x1="85.4" y1="184.5" x2="93.3" y2="179.9"/>
				<line class="st16" x1="90" y1="186.8" x2="97.9" y2="182.2"/>
				<line class="st16" x1="93.9" y1="189.4" x2="101.8" y2="184.8"/>
			</g>
		</g>
		<g>
			<linearGradient id="SVGID_16_" gradientUnits="userSpaceOnUse" x1="150.2101" y1="100.2034" x2="108.4861" y2="152.8551">
				<stop  offset="0" style="stop-color:#D8C8E9"/>
				<stop  offset="0.9987" style="stop-color:#FFFFFF"/>
			</linearGradient>
			<linearGradient id="SVGID_17_" gradientUnits="userSpaceOnUse" x1="68.7314" y1="126.3637" x2="189.3836" y2="126.3637">
				<stop  offset="0" style="stop-color:#F8F5FB"/>
				<stop  offset="1" style="stop-color:#4F0599;stop-opacity:0.5"/>
			</linearGradient>
			<polygon class="st17" points="125,159.4 69.7,129.2 133.2,93.3 188.4,124.6 			"/>
			<linearGradient id="SVGID_18_" gradientUnits="userSpaceOnUse" x1="152.2952" y1="144.4491" x2="160.8468" y2="159.2199">
				<stop  offset="0" style="stop-color:#4F0599;stop-opacity:0.5"/>
				<stop  offset="1" style="stop-color:#F8F5FB"/>
			</linearGradient>
			<linearGradient id="SVGID_19_" gradientUnits="userSpaceOnUse" x1="151.6576" y1="143.1539" x2="161.5247" y2="160.5788">
				<stop  offset="0" style="stop-color:#4F0599;stop-opacity:0.5"/>
				<stop  offset="1" style="stop-color:#F8F5FB"/>
			</linearGradient>
			<polygon class="st18" points="125,179.4 188.4,144.2 188.4,124.6 125,159.4 			"/>
			<linearGradient id="SVGID_20_" gradientUnits="userSpaceOnUse" x1="101.6616" y1="145.7677" x2="91.0081" y2="166.8406">
				<stop  offset="0" style="stop-color:#D8C8E9"/>
				<stop  offset="0.9987" style="stop-color:#FFFFFF"/>
			</linearGradient>
			<linearGradient id="SVGID_21_" gradientUnits="userSpaceOnUse" x1="92.7361" y1="162.5494" x2="102.2288" y2="145.572">
				<stop  offset="0" style="stop-color:#F8F5FB"/>
				<stop  offset="1" style="stop-color:#4F0599;stop-opacity:0.5"/>
			</linearGradient>
			<polygon class="st19" points="69.7,129.2 69.7,148.5 125,179.4 125,159.4 			"/>
			<ellipse class="st20" cx="116.3" cy="164.9" rx="2.1" ry="3.1"/>
			<g>
				<line class="st21" x1="86.4" y1="152.9" x2="94.3" y2="148.2"/>
				<line class="st21" x1="91" y1="155.2" x2="98.8" y2="150.6"/>
				<line class="st21" x1="94.9" y1="157.7" x2="102.8" y2="153.1"/>
			</g>
		</g>
		<g>
			<linearGradient id="SVGID_22_" gradientUnits="userSpaceOnUse" x1="149.2235" y1="68.53" x2="107.4995" y2="121.1817">
				<stop  offset="0" style="stop-color:#FEC0BE;stop-opacity:0.5"/>
				<stop  offset="0.9987" style="stop-color:#FFFFFF"/>
			</linearGradient>
			<linearGradient id="SVGID_23_" gradientUnits="userSpaceOnUse" x1="67.7448" y1="94.6903" x2="188.397" y2="94.6903">
				<stop  offset="0" style="stop-color:#F8F5FB"/>
				<stop  offset="1" style="stop-color:#FC6A65;stop-opacity:0.5"/>
			</linearGradient>
			<polygon class="st22" points="124,127.8 68.7,97.5 132.2,61.6 187.4,92.9 			"/>
			<linearGradient id="SVGID_24_" gradientUnits="userSpaceOnUse" x1="151.3087" y1="112.7757" x2="159.8602" y2="127.5465">
				<stop  offset="0" style="stop-color:#FC6A65;stop-opacity:0.5"/>
				<stop  offset="1" style="stop-color:#F8F5FB"/>
			</linearGradient>
			<linearGradient id="SVGID_25_" gradientUnits="userSpaceOnUse" x1="150.671" y1="111.4804" x2="160.5381" y2="128.9053">
				<stop  offset="0" style="stop-color:#FC6A65;stop-opacity:0.5"/>
				<stop  offset="1" style="stop-color:#F8F5FB"/>
			</linearGradient>
			<polygon class="st23" points="124,147.7 187.4,112.5 187.4,92.9 124,127.8 			"/>
			<linearGradient id="SVGID_26_" gradientUnits="userSpaceOnUse" x1="100.675" y1="114.0943" x2="90.0215" y2="135.1671">
				<stop  offset="0" style="stop-color:#FEC0BE"/>
				<stop  offset="0.9987" style="stop-color:#FFFFFF"/>
			</linearGradient>
			<linearGradient id="SVGID_27_" gradientUnits="userSpaceOnUse" x1="91.7495" y1="130.8759" x2="101.2423" y2="113.8985">
				<stop  offset="0" style="stop-color:#F8F5FB"/>
				<stop  offset="1" style="stop-color:#FC6A65;stop-opacity:0.5"/>
			</linearGradient>
			<polygon class="st24" points="68.7,97.5 68.7,116.8 124,147.7 124,127.8 			"/>
			<ellipse class="st15" cx="115.3" cy="133.2" rx="2.1" ry="3.1"/>
			<g>
				<line class="st16" x1="85.4" y1="121.2" x2="93.3" y2="116.6"/>
				<line class="st16" x1="90" y1="123.5" x2="97.9" y2="118.9"/>
				<line class="st16" x1="93.9" y1="126" x2="101.8" y2="121.4"/>
			</g>
		</g>
	</g>
	<g>
		<linearGradient id="SVGID_28_" gradientUnits="userSpaceOnUse" x1="207.4227" y1="73.9281" x2="274.0651" y2="130.3178">
			<stop  offset="0" style="stop-color:#F8F5FB"/>
			<stop  offset="1" style="stop-color:#4F0599;stop-opacity:0.5"/>
		</linearGradient>
		<circle class="st25" cx="219.9" cy="84.5" r="25.2"/>
		<g>
			<g>
				<defs>
					<path id="SVGID_29_" d="M219.9,66.5L205.1,73v9.8c0,9.1,6.3,17.6,14.8,19.6c8.5-2.1,14.8-10.6,14.8-19.6V73L219.9,66.5z"/>
				</defs>
				<clipPath id="SVGID_30_">
					<use xlink:href="#SVGID_29_"  style="overflow:visible;"/>
				</clipPath>
				<g class="st26">
					<defs>
						<rect id="SVGID_31_" x="160.2" y="-1969" width="574.5" height="3384.9"/>
					</defs>
					<clipPath id="SVGID_32_">
						<use xlink:href="#SVGID_31_"  style="overflow:visible;"/>
					</clipPath>
					<path class="st27" d="M219.9,66.5L205.1,73v9.8c0,9.1,6.3,17.6,14.8,19.6c8.5-2.1,14.8-10.6,14.8-19.6V73L219.9,66.5z"/>
					<use xlink:href="#SVGID_31_"  style="overflow:visible;fill:none;stroke:#4F0599;stroke-width:2;stroke-miterlimit:10;"/>
				</g>
				
					<use xlink:href="#SVGID_29_"  style="overflow:visible;fill-rule:evenodd;clip-rule:evenodd;fill:none;stroke:#4F0599;stroke-width:2;stroke-miterlimit:10;"/>
			</g>
			<path class="st10" d="M219.9,88.8c1,0,1.8-0.8,1.8-1.8c0-1-0.8-1.8-1.8-1.8c-1,0-1.8,0.8-1.8,1.8C218.1,88,218.9,88.8,219.9,88.8
				z M219.9,76.6c-1.4,0-2.7,0.9-2.7,2.3v2.7h5.4v-2.7C222.6,77.5,221.3,76.6,219.9,76.6z M219.9,74.4c2.5,0,5.1,2,5.1,4.5v2.7
				c1.1,0,2.2,1.1,2.2,2.3v6.3c0,1.1-1.1,2.2-2.3,2.2h-9.9c-1.1,0-2.2-1.1-2.2-2.3v-6.3c0-1.1,1.1-2.2,2.2-2.2v-2.7
				C214.8,76.4,217.4,74.4,219.9,74.4z"/>
		</g>
	</g>
</g>
</svg>
