<?xml version="1.0" encoding="utf-8"?>
<!-- Generator: Adobe Illustrator 23.0.2, SVG Export Plug-In . SVG Version: 6.00 Build 0)  -->
<svg version="1.1" id="Calque_1" xmlns="http://www.w3.org/2000/svg" xmlns:xlink="http://www.w3.org/1999/xlink" x="0px" y="0px"
	 viewBox="0 0 250 250" style="enable-background:new 0 0 250 250;" xml:space="preserve">
<style type="text/css">
	.st0{fill-rule:evenodd;clip-rule:evenodd;fill:#F1EBF7;}
	.st1{fill-rule:evenodd;clip-rule:evenodd;fill:#FFFFFF;}
	.st2{fill:none;stroke:#FC6A65;stroke-width:2;stroke-miterlimit:10;}
	.st3{fill:none;stroke:#4F0599;stroke-width:2;stroke-miterlimit:10;}
	.st4{fill:#FC6A65;}
	.st5{fill:#4F0599;}
	.st6{fill:#FFFFFF;}
	.st7{fill:url(#SVGID_1_);}
	.st8{opacity:0.31;}
	
		.st9{fill:none;stroke:url(#SVGID_2_);stroke-width:1.959;stroke-linecap:round;stroke-linejoin:round;stroke-dasharray:1.0059,7.9834;}
	.st10{fill:none;stroke:#4F0599;stroke-linecap:round;stroke-linejoin:round;}
	.st11{fill:none;stroke:#4F0599;stroke-linecap:round;stroke-linejoin:round;stroke-dasharray:1.8351,3.6703;}
	.st12{fill:none;stroke:#4F0599;stroke-linecap:round;stroke-linejoin:round;stroke-miterlimit:10;stroke-dasharray:2,4;}
	.st13{fill:url(#SVGID_3_);}
	.st14{fill:none;stroke:#4F0599;stroke-width:1.5;stroke-linecap:round;stroke-linejoin:round;}
	.st15{fill:url(#SVGID_4_);}
	.st16{fill:url(#SVGID_5_);}
	.st17{fill:url(#SVGID_6_);}
	.st18{opacity:0.15;fill:#4F0599;}
	.st19{opacity:0.1;fill:#4F0599;}
</style>
<g>
	<g>
		<circle class="st0" cx="124.9" cy="124" r="91.8"/>
		<circle class="st1" cx="124.9" cy="124" r="68.8"/>
	</g>
	<path class="st2" d="M45.6,124.3c0-43.7,35.4-79.1,79.1-79.1c28.5,0,53.5,15.1,67.4,37.7"/>
	<path class="st3" d="M58.5,167.1c23.2,37,72,48.2,109,24.9c24.1-15.2,37.3-41.2,37-67.8"/>
	<path class="st2" d="M76,215.7c-32.6-17-54.8-51.1-54.8-90.4c0-42.2,25.7-78.5,62.3-93.9"/>
	<path class="st3" d="M190.2,45.6c23.4,18.7,38.4,47.5,38.4,79.7c0,24.4-8.5,46.7-22.8,64.3"/>
	<circle class="st4" cx="106.6" cy="47.4" r="5.3"/>
	<g>
		<circle class="st5" cx="72.4" cy="182.7" r="8.5"/>
		<circle class="st5" cx="72.4" cy="182.7" r="8.5"/>
	</g>
	<g>
		<circle class="st4" cx="77.5" cy="214.3" r="10"/>
		<circle class="st4" cx="77.5" cy="214.3" r="10"/>
	</g>
	<g>
		<g>
			<circle class="st6" cx="140.8" cy="200.1" r="16"/>
			<linearGradient id="SVGID_1_" gradientUnits="userSpaceOnUse" x1="182.3576" y1="230.8178" x2="129.521" y2="191.7647">
				<stop  offset="0" style="stop-color:#4F0599;stop-opacity:0.5"/>
				<stop  offset="1" style="stop-color:#F8F5FB"/>
			</linearGradient>
			<circle class="st7" cx="140.8" cy="200.1" r="16"/>
		</g>
		<g>
			<path class="st5" d="M146.9,205.4c-0.2,0-0.5-0.1-0.7-0.3c0,0,0,0-0.1-0.1c-0.3-0.3-0.3-0.8,0-1.1l4.4-4.1l-4.4-4.1
				c0,0,0,0-0.1-0.1c-0.3-0.3-0.3-0.8,0-1.1c0.2-0.2,0.4-0.3,0.7-0.3s0.5,0.1,0.7,0.3l5,4.7c0,0,0,0,0,0c0.3,0.3,0.3,0.8,0,1.1
				l-5,4.7C147.4,205.3,147.2,205.4,146.9,205.4z"/>
			<path class="st5" d="M134.6,205.4c-0.2,0-0.5-0.1-0.7-0.3l-5-4.7c0,0,0,0-0.1-0.1c-0.3-0.3-0.3-0.8,0-1.1l5-4.7
				c0.2-0.2,0.4-0.3,0.7-0.3c0.2,0,0.5,0.1,0.7,0.3c0,0,0,0,0.1,0.1c0.3,0.3,0.3,0.8,0,1.1l-4.4,4.1l4.4,4.1c0,0,0,0,0.1,0.1
				c0.1,0.2,0.2,0.4,0.2,0.6c0,0.2-0.1,0.4-0.3,0.5C135.1,205.3,134.9,205.4,134.6,205.4z"/>
			<path class="st5" d="M138.5,206.7c-0.1,0-0.2,0-0.3-0.1c-0.5-0.2-0.7-0.7-0.5-1.2l4.6-11.5c0.1-0.3,0.5-0.6,0.8-0.6
				c0.1,0,0.2,0,0.3,0.1c0.2,0.1,0.4,0.3,0.5,0.5c0.1,0.2,0.1,0.5,0,0.7l-4.6,11.5C139.2,206.5,138.9,206.7,138.5,206.7z"/>
		</g>
	</g>
	<g>
		<circle class="st4" cx="76" cy="62.9" r="10.3"/>
		<circle class="st4" cx="76" cy="62.9" r="10.3"/>
	</g>
	<circle class="st5" cx="227.5" cy="109.6" r="8.2"/>
	<g class="st8">
		<linearGradient id="SVGID_2_" gradientUnits="userSpaceOnUse" x1="5.6429" y1="125" x2="245.0856" y2="125">
			<stop  offset="0" style="stop-color:#FFFFFF"/>
			<stop  offset="0.2503" style="stop-color:#4F0599"/>
		</linearGradient>
		<circle class="st9" cx="125.4" cy="125" r="118.7"/>
	</g>
	<g>
		<g>
			<line class="st10" x1="136.2" y1="186.2" x2="136" y2="185.2"/>
			<line class="st11" x1="135.2" y1="181.6" x2="134.4" y2="178"/>
			<line class="st10" x1="134" y1="176.2" x2="133.8" y2="175.2"/>
		</g>
	</g>
	<line class="st12" x1="174.4" y1="52.7" x2="156.6" y2="81.7"/>
	<line class="st12" x1="37.9" y1="117" x2="72.6" y2="119"/>
	<g>
		<g>
			<circle class="st6" cx="21.9" cy="117" r="16"/>
			<linearGradient id="SVGID_3_" gradientUnits="userSpaceOnUse" x1="63.4664" y1="147.7539" x2="10.6298" y2="108.7008">
				<stop  offset="0" style="stop-color:#FC6A65;stop-opacity:0.5"/>
				<stop  offset="1" style="stop-color:#F8F5FB"/>
			</linearGradient>
			<circle class="st13" cx="21.9" cy="117" r="16"/>
		</g>
		<path class="st14" d="M21.9,120.1c-1.7,0-3.1-1.4-3.1-3.1s1.4-3.1,3.1-3.1s3.1,1.4,3.1,3.1S23.6,120.1,21.9,120.1L21.9,120.1z
			 M28.9,118c0-0.3,0.1-0.6,0.1-0.9s0-0.6-0.1-1l2-1.6c0.2-0.1,0.2-0.4,0.1-0.6l-1.9-3.3c-0.1-0.2-0.4-0.3-0.6-0.2l-2.4,1
			c-0.5-0.4-1-0.7-1.6-0.9l-0.3-2.5c0-0.2-0.2-0.4-0.5-0.4H20c-0.2,0-0.4,0.2-0.5,0.4l-0.3,2.5c-0.6,0.2-1.1,0.6-1.6,0.9l-2.4-1
			c-0.2-0.1-0.5,0-0.6,0.2l-1.9,3.3c-0.1,0.2-0.1,0.5,0.1,0.6l2,1.6c0,0.3-0.1,0.6-0.1,1s0,0.6,0.1,0.9l-2,1.6
			c-0.2,0.1-0.2,0.4-0.1,0.6l1.9,3.3c0.1,0.2,0.4,0.3,0.6,0.2l2.4-1c0.5,0.4,1,0.7,1.6,0.9l0.3,2.5c0,0.2,0.2,0.4,0.5,0.4h3.8
			c0.2,0,0.4-0.2,0.5-0.4l0.3-2.5c0.6-0.2,1.1-0.6,1.6-0.9l2.4,1c0.2,0.1,0.5,0,0.6-0.2l1.9-3.3c0.1-0.2,0.1-0.5-0.1-0.6L28.9,118
			L28.9,118z"/>
	</g>
	<g>
		<linearGradient id="SVGID_4_" gradientUnits="userSpaceOnUse" x1="74.2364" y1="123.5109" x2="175.5915" y2="123.5109">
			<stop  offset="1.342147e-03" style="stop-color:#FFFFFF"/>
			<stop  offset="1" style="stop-color:#D8C8E9"/>
		</linearGradient>
		<circle class="st15" cx="124.9" cy="123.5" r="50.7"/>
		<linearGradient id="SVGID_5_" gradientUnits="userSpaceOnUse" x1="72.414" y1="123.5109" x2="177.414" y2="123.5109">
			<stop  offset="0" style="stop-color:#F8F5FB"/>
			<stop  offset="1" style="stop-color:#4F0599;stop-opacity:0.5"/>
		</linearGradient>
		<path class="st16" d="M177.4,123.5c0-28.7-23.2-52.1-51.9-52.5c-0.1,0-0.2,0-0.3,0c0,0-0.1,0-0.1,0c-0.1,0-0.2,0-0.3,0
			c-14.1,0-26.9,5.6-36.3,14.6c-0.1,0.1-0.2,0.1-0.3,0.2c0,0-0.1,0.1-0.1,0.1c-9.8,9.5-15.8,22.8-15.8,37.5
			c0,28.9,23.6,52.5,52.5,52.5c0.1,0,0.2,0,0.3,0c0,0,0.1,0,0.1,0c0.1,0,0.2,0,0.3,0c13.8-0.2,26.4-5.7,35.7-14.6
			c0.1-0.1,0.2-0.2,0.3-0.3c0.1-0.1,0.1-0.1,0.1-0.2C171.4,151.4,177.4,138.2,177.4,123.5z M160.1,157.3
			c-4.8-4.4-10.3-7.8-16.3-10.1c1.3-6.6,2.1-14,2.2-21.9h27.7C173.3,137.7,168.2,148.9,160.1,157.3z M125.2,172.4
			c-5.4-0.1-11.1-8.7-14.4-22.9c4.5-1.4,9.3-2.1,14.1-2.1c5.1,0,10.1,0.8,14.8,2.3c-3.2,14-8.8,22.5-14.2,22.7
			C125.4,172.4,125.3,172.4,125.2,172.4z M116.9,171.7c-9.4-1.5-17.8-5.8-24.6-11.9c4.5-4,9.6-7.1,15.1-9.3
			C109.6,160,112.9,167.4,116.9,171.7z M125.2,74.7c0.1,0,0.2,0,0.3,0c5.4,0.2,11,8.7,14.2,22.7c-4.7,1.5-9.7,2.3-14.8,2.3
			c-4.8,0-9.6-0.7-14.1-2.1C114.1,83.3,119.8,74.8,125.2,74.7z M107.4,96.4c-5.5-2.1-10.6-5.2-15.1-9.2c6.8-6.1,15.2-10.3,24.6-11.8
			C112.9,79.7,109.6,87,107.4,96.4z M133.8,75.5c9,1.7,17.1,5.8,23.7,11.7c-4.3,3.8-9.2,6.9-14.4,9C140.9,87,137.7,79.8,133.8,75.5z
			 M124.9,103.3c5.3,0,10.5-0.8,15.5-2.3c1.2,6.1,1.9,13.1,2,20.8h-34.2c0.1-7.6,0.8-14.5,1.9-20.6
			C114.9,102.5,119.8,103.3,124.9,103.3z M142.4,125.3c-0.1,7.7-0.8,14.6-1.9,20.7c-5-1.5-10.2-2.3-15.5-2.3
			c-5.1,0-10.1,0.7-14.8,2.1c-1.1-6-1.8-12.9-1.9-20.5H142.4z M143.1,150.8c5.2,2.1,10.1,5.1,14.4,9c-6.6,5.9-14.7,10-23.7,11.7
			C137.7,167.2,140.9,160,143.1,150.8z M173.7,121.7H146c-0.1-7.9-0.9-15.4-2.2-22c5.9-2.3,11.4-5.7,16.2-10
			C168.2,98.1,173.3,109.3,173.7,121.7z M89.7,89.7c5,4.5,10.8,8,17,10.3c-1.3,6.5-2,13.9-2.1,21.7H76.1
			C76.6,109.3,81.7,98.1,89.7,89.7z M76.1,125.3h28.4c0.1,7.8,0.8,15.1,2.1,21.7c-6.2,2.3-12,5.8-17,10.3
			C81.6,148.9,76.6,137.7,76.1,125.3z"/>
	</g>
	<g>
		<g>
			<circle class="st6" cx="184" cy="39.7" r="16"/>
			<linearGradient id="SVGID_6_" gradientUnits="userSpaceOnUse" x1="225.6017" y1="70.432" x2="172.7651" y2="31.3789">
				<stop  offset="0" style="stop-color:#4F0599;stop-opacity:0.5"/>
				<stop  offset="1" style="stop-color:#F8F5FB"/>
			</linearGradient>
			<circle class="st17" cx="184" cy="39.7" r="16"/>
		</g>
		<g>
			<g>
				<path class="st5" d="M191.6,44.5c-0.2-0.2-0.4-0.6-0.4-0.9c0-2.8-1.1-5.4-3-7.4s-4.6-3.1-7.4-3c-0.7,0-1.3-0.6-1.3-1.3
					c0-0.7,0.6-1.3,1.3-1.3c3.5,0,6.8,1.3,9.3,3.8c2.5,2.5,3.8,5.8,3.8,9.3c0,0.7-0.6,1.3-1.3,1.3C192.2,44.9,191.8,44.7,191.6,44.5
					z"/>
			</g>
			<g>
				<path class="st5" d="M187.5,45c-0.2-0.2-0.4-0.6-0.4-0.9c0-1.8-0.7-3.5-2-4.8s-3-2-4.8-2c-0.7,0-1.3-0.6-1.3-1.3
					c0-0.7,0.6-1.3,1.3-1.3c2.5,0,4.9,1,6.7,2.8s2.8,4.2,2.8,6.7c0,0.7-0.6,1.3-1.3,1.3C188.1,45.4,187.7,45.2,187.5,45z"/>
			</g>
			<g>
				<path class="st5" d="M183.3,45.5c-0.2-0.2-0.4-0.6-0.4-0.9c0-0.8-0.3-1.6-0.9-2.2s-1.4-0.9-2.2-0.9c-0.7,0-1.3-0.6-1.3-1.3
					c0-0.7,0.6-1.3,1.3-1.3c1.5,0,3,0.6,4.1,1.7s1.7,2.5,1.7,4.1c0,0.7-0.6,1.3-1.3,1.3C183.9,45.8,183.5,45.7,183.3,45.5z"/>
			</g>
			<g>
				<circle class="st5" cx="179.5" cy="44.9" r="1.7"/>
			</g>
		</g>
	</g>
	<path class="st18" d="M156,185.2c-1.7,0.9-3.5,1.7-5.3,2.4c3.6,2.9,5.9,7.4,5.9,12.4c0,4.6-2,8.7-5.1,11.7c2.8-0.9,5.6-1.8,8.3-3
		c2.2-2.8,3.6-6.3,3.6-10.1C163.5,193.1,160.5,188.1,156,185.2z"/>
	<path class="st19" d="M43.9,117c0-6.1-3.4-11.3-8.3-14c-0.3,1.5-0.7,3-0.9,4.5c2,2.7,3.2,6,3.2,9.6c0,4.4-1.8,8.3-4.6,11.2
		c0.1,1.3,0.1,2.5,0.3,3.8C39.5,129.7,43.9,123.9,43.9,117z"/>
	<circle class="st2" cx="87.1" cy="30.3" r="4.3"/>
	<circle class="st3" cx="204.6" cy="120.1" r="4.3"/>
	<circle class="st2" cx="45.6" cy="127.9" r="4.3"/>
</g>
</svg>
